<?xml version="1.0" standalone="no"?>
<!DOCTYPE svg PUBLIC "-//W3C//DTD SVG 20010904//EN"
 "http://www.w3.org/TR/2001/REC-SVG-20010904/DTD/svg10.dtd">
<svg version="1.0" xmlns="http://www.w3.org/2000/svg"
 width="55.000000pt" height="61.000000pt" viewBox="0 0 55.000000 61.000000"
 preserveAspectRatio="xMidYMid meet">

<g transform="translate(0.000000,61.000000) scale(0.100000,-0.100000)"
fill="#000000" stroke="none">
<path d="M140 540 c-24 -6 -56 -21 -70 -35 -24 -24 -25 -31 -28 -162 -5 -173
0 -198 41 -223 28 -17 51 -20 174 -20 142 0 178 4 167 21 -3 5 2 9 10 9 33 0
47 54 47 191 0 140 -11 181 -53 209 -28 17 -219 24 -288 10z m158 -92 c16 -16
16 -150 0 -166 -15 -15 -61 -15 -76 0 -18 18 -16 143 4 162 18 19 55 21 72 4z
m-108 -120 c0 -39 34 -78 69 -78 37 0 71 37 71 77 0 23 5 33 16 33 12 0 15
-11 12 -54 -1 -30 -5 -54 -8 -53 -13 2 -69 -40 -74 -55 -6 -24 -27 -23 -33 2
-3 10 -14 22 -24 25 -32 10 -59 55 -59 96 0 28 4 39 15 39 10 0 15 -10 15 -32z"/>
<path d="M247 424 c-4 -4 -7 -34 -7 -66 0 -52 2 -58 20 -58 19 0 21 5 18 62
-3 57 -14 79 -31 62z"/>
</g>
</svg>
